<?xml version="1.0" standalone="no"?>
<!DOCTYPE svg PUBLIC "-//W3C//DTD SVG 20010904//EN"
 "http://www.w3.org/TR/2001/REC-SVG-20010904/DTD/svg10.dtd">
<svg version="1.0" xmlns="http://www.w3.org/2000/svg"
 width="64.000000pt" height="64.000000pt" viewBox="0 0 64.000000 64.000000"
 preserveAspectRatio="xMidYMid meet">

<g transform="translate(0.000000,64.000000) scale(0.100000,-0.100000)"
fill="#000000" stroke="none">
<path d="M296 447 c-13 -24 -13 -27 -2 -13 9 11 21 23 27 27 6 4 7 9 2 12 -5
3 -17 -8 -27 -26z"/>
<path d="M339 435 c5 -11 17 -29 26 -40 l16 -20 -10 20 c-5 11 -17 29 -26 40
l-16 20 10 -20z"/>
<path d="M260 390 c-6 -11 -8 -20 -6 -20 3 0 10 9 16 20 6 11 8 20 6 20 -3 0
-10 -9 -16 -20z"/>
<path d="M393 349 c10 -17 12 -30 5 -42 -7 -14 -5 -17 12 -17 30 0 24 -18 -7
-22 -16 -2 -29 -10 -31 -20 -3 -13 7 -17 52 -20 50 -3 55 -1 59 20 3 16 0 22
-14 22 -11 0 -19 5 -19 10 0 6 12 10 26 10 19 0 25 5 22 18 -2 12 -15 18 -43
20 -26 2 -47 11 -59 25 l-18 22 15 -26z"/>
<path d="M210 310 c-6 -11 -8 -20 -6 -20 3 0 10 9 16 20 6 11 8 20 6 20 -3 0
-10 -9 -16 -20z"/>
<path d="M266 314 c-3 -9 -6 -18 -6 -20 0 -2 23 -4 50 -4 28 0 50 4 50 8 0 31
-83 46 -94 16z"/>
<path d="M180 260 c-6 -11 -8 -20 -6 -20 3 0 10 9 16 20 6 11 8 20 6 20 -3 0
-10 -9 -16 -20z"/>
<path d="M247 250 c-5 -20 -2 -21 51 -18 45 2 58 7 60 21 3 14 -5 17 -51 17
-47 0 -55 -3 -60 -20z"/>
<path d="M155 221 c-6 -5 -28 -11 -50 -13 l-40 -3 43 -6 c35 -4 45 -1 53 13
11 20 8 23 -6 9z"/>
<path d="M242 198 c2 -19 10 -24 47 -26 28 -2 47 1 52 10 19 30 9 38 -47 38
-52 0 -55 -1 -52 -22z"/>
<path d="M367 213 c-4 -3 -7 -15 -7 -25 0 -30 47 -24 52 7 4 21 1 25 -17 25
-12 0 -25 -3 -28 -7z"/>
<path d="M490 190 c12 -23 22 -27 14 -6 -4 11 4 16 33 19 36 3 35 4 -10 5 -45
2 -47 1 -37 -18z"/>
<path d="M120 160 c-11 -20 -8 -20 195 -20 113 0 205 3 205 8 0 4 -88 6 -196
4 -174 -2 -196 -1 -191 13 9 22 0 19 -13 -5z"/>
</g>
</svg>
